<svg width="22" height="22" viewBox="0 0 22 22" fill="none" xmlns="http://www.w3.org/2000/svg">
<path d="M11.6875 1.375V4.125C11.6875 4.30734 11.6151 4.4822 11.4861 4.61114C11.3572 4.74007 11.1823 4.8125 11 4.8125C10.8177 4.8125 10.6428 4.74007 10.5139 4.61114C10.3849 4.4822 10.3125 4.30734 10.3125 4.125V1.375C10.3125 1.19266 10.3849 1.0178 10.5139 0.888864C10.6428 0.759933 10.8177 0.6875 11 0.6875C11.1823 0.6875 11.3572 0.759933 11.4861 0.888864C11.6151 1.0178 11.6875 1.19266 11.6875 1.375ZM15.125 4.8125C14.9427 4.8125 14.7678 4.88493 14.6389 5.01386C14.5099 5.1428 14.4375 5.31766 14.4375 5.5V8.25C14.4375 8.43234 14.5099 8.6072 14.6389 8.73614C14.7678 8.86507 14.9427 8.9375 15.125 8.9375C15.3073 8.9375 15.4822 8.86507 15.6111 8.73614C15.7401 8.6072 15.8125 8.43234 15.8125 8.25V5.5C15.8125 5.31766 15.7401 5.1428 15.6111 5.01386C15.4822 4.88493 15.3073 4.8125 15.125 4.8125ZM11 17.1875C10.8177 17.1875 10.6428 17.2599 10.5139 17.3889C10.3849 17.5178 10.3125 17.6927 10.3125 17.875V20.625C10.3125 20.8073 10.3849 20.9822 10.5139 21.1111C10.6428 21.2401 10.8177 21.3125 11 21.3125C11.1823 21.3125 11.3572 21.2401 11.4861 21.1111C11.6151 20.9822 11.6875 20.8073 11.6875 20.625V17.875C11.6875 17.6927 11.6151 17.5178 11.4861 17.3889C11.3572 17.2599 11.1823 17.1875 11 17.1875ZM11 6.875C10.8177 6.875 10.6428 6.94743 10.5139 7.07636C10.3849 7.2053 10.3125 7.38016 10.3125 7.5625V14.4375C10.3125 14.6198 10.3849 14.7947 10.5139 14.9236C10.6428 15.0526 10.8177 15.125 11 15.125C11.1823 15.125 11.3572 15.0526 11.4861 14.9236C11.6151 14.7947 11.6875 14.6198 11.6875 14.4375V7.5625C11.6875 7.38016 11.6151 7.2053 11.4861 7.07636C11.3572 6.94743 11.1823 6.875 11 6.875ZM6.875 4.8125C6.69266 4.8125 6.5178 4.88493 6.38886 5.01386C6.25993 5.1428 6.1875 5.31766 6.1875 5.5V10.3125C6.1875 10.4948 6.25993 10.6697 6.38886 10.7986C6.5178 10.9276 6.69266 11 6.875 11C7.05734 11 7.2322 10.9276 7.36114 10.7986C7.49007 10.6697 7.5625 10.4948 7.5625 10.3125V5.5C7.5625 5.31766 7.49007 5.1428 7.36114 5.01386C7.2322 4.88493 7.05734 4.8125 6.875 4.8125ZM15.125 11C14.9427 11 14.7678 11.0724 14.6389 11.2014C14.5099 11.3303 14.4375 11.5052 14.4375 11.6875V16.5C14.4375 16.6823 14.5099 16.8572 14.6389 16.9861C14.7678 17.1151 14.9427 17.1875 15.125 17.1875C15.3073 17.1875 15.4822 17.1151 15.6111 16.9861C15.7401 16.8572 15.8125 16.6823 15.8125 16.5V11.6875C15.8125 11.5052 15.7401 11.3303 15.6111 11.2014C15.4822 11.0724 15.3073 11 15.125 11ZM2.75 8.9375C2.56766 8.9375 2.3928 9.00993 2.26386 9.13886C2.13493 9.2678 2.0625 9.44266 2.0625 9.625V12.375C2.0625 12.5573 2.13493 12.7322 2.26386 12.8611C2.3928 12.9901 2.56766 13.0625 2.75 13.0625C2.93234 13.0625 3.1072 12.9901 3.23614 12.8611C3.36507 12.7322 3.4375 12.5573 3.4375 12.375V9.625C3.4375 9.44266 3.36507 9.2678 3.23614 9.13886C3.1072 9.00993 2.93234 8.9375 2.75 8.9375ZM6.875 13.0625C6.69266 13.0625 6.5178 13.1349 6.38886 13.2639C6.25993 13.3928 6.1875 13.5677 6.1875 13.75V16.5C6.1875 16.6823 6.25993 16.8572 6.38886 16.9861C6.5178 17.1151 6.69266 17.1875 6.875 17.1875C7.05734 17.1875 7.2322 17.1151 7.36114 16.9861C7.49007 16.8572 7.5625 16.6823 7.5625 16.5V13.75C7.5625 13.5677 7.49007 13.3928 7.36114 13.2639C7.2322 13.1349 7.05734 13.0625 6.875 13.0625ZM19.25 8.9375C19.0677 8.9375 18.8928 9.00993 18.7639 9.13886C18.6349 9.2678 18.5625 9.44266 18.5625 9.625V12.375C18.5625 12.5573 18.6349 12.7322 18.7639 12.8611C18.8928 12.9901 19.0677 13.0625 19.25 13.0625C19.4323 13.0625 19.6072 12.9901 19.7361 12.8611C19.8651 12.7322 19.9375 12.5573 19.9375 12.375V9.625C19.9375 9.44266 19.8651 9.2678 19.7361 9.13886C19.6072 9.00993 19.4323 8.9375 19.25 8.9375Z" fill="currentColor"/>
</svg>
