<svg width="22" height="22" viewBox="0 0 22 22" fill="none" xmlns="http://www.w3.org/2000/svg">
<path d="M2.75 5.5C2.75 5.31766 2.82243 5.1428 2.95136 5.01386C3.0803 4.88493 3.25516 4.8125 3.4375 4.8125H18.5625C18.7448 4.8125 18.9197 4.88493 19.0486 5.01386C19.1776 5.1428 19.25 5.31766 19.25 5.5C19.25 5.68234 19.1776 5.8572 19.0486 5.98614C18.9197 6.11507 18.7448 6.1875 18.5625 6.1875H3.4375C3.25516 6.1875 3.0803 6.11507 2.95136 5.98614C2.82243 5.8572 2.75 5.68234 2.75 5.5ZM3.4375 11.6875H13.75C13.9323 11.6875 14.1072 11.6151 14.2361 11.4861C14.3651 11.3572 14.4375 11.1823 14.4375 11C14.4375 10.8177 14.3651 10.6428 14.2361 10.5139C14.1072 10.3849 13.9323 10.3125 13.75 10.3125H3.4375C3.25516 10.3125 3.0803 10.3849 2.95136 10.5139C2.82243 10.6428 2.75 10.8177 2.75 11C2.75 11.1823 2.82243 11.3572 2.95136 11.4861C3.0803 11.6151 3.25516 11.6875 3.4375 11.6875ZM9.625 15.8125H3.4375C3.25516 15.8125 3.0803 15.8849 2.95136 16.0139C2.82243 16.1428 2.75 16.3177 2.75 16.5C2.75 16.6823 2.82243 16.8572 2.95136 16.9861C3.0803 17.1151 3.25516 17.1875 3.4375 17.1875H9.625C9.80734 17.1875 9.9822 17.1151 10.1111 16.9861C10.2401 16.8572 10.3125 16.6823 10.3125 16.5C10.3125 16.3177 10.2401 16.1428 10.1111 16.0139C9.9822 15.8849 9.80734 15.8125 9.625 15.8125ZM21.2833 10.8539C21.2573 10.9407 21.2145 11.0216 21.1572 11.0917C21.0999 11.1619 21.0292 11.2201 20.9494 11.2629C20.8695 11.3057 20.782 11.3323 20.6918 11.3412C20.6016 11.35 20.5106 11.341 20.4239 11.3145L17.875 10.5488V16.5C17.876 17.1066 17.6767 17.6966 17.308 18.1783C16.9394 18.66 16.422 19.0066 15.8362 19.1642C15.2504 19.3218 14.629 19.2816 14.0684 19.0498C13.5078 18.818 13.0394 18.4077 12.7359 17.8824C12.4324 17.3572 12.3108 16.7465 12.39 16.1451C12.4691 15.5436 12.7446 14.9852 13.1737 14.5563C13.6027 14.1275 14.1613 13.8523 14.7628 13.7735C15.3643 13.6947 15.9749 13.8166 16.5 14.1204V9.625C16.5 9.51783 16.5251 9.41215 16.5732 9.3164C16.6214 9.22065 16.6912 9.13748 16.7772 9.07353C16.8632 9.00957 16.963 8.96661 17.0685 8.94806C17.1741 8.92952 17.2825 8.93591 17.3852 8.96672L20.8227 9.99797C20.9972 10.0504 21.1438 10.1701 21.2302 10.3306C21.3165 10.4911 21.3356 10.6793 21.2833 10.8539ZM16.5 16.5C16.5 16.2281 16.4194 15.9622 16.2683 15.7361C16.1172 15.51 15.9024 15.3337 15.6512 15.2297C15.3999 15.1256 15.1235 15.0984 14.8567 15.1514C14.59 15.2045 14.345 15.3354 14.1527 15.5277C13.9604 15.72 13.8295 15.965 13.7764 16.2318C13.7234 16.4985 13.7506 16.7749 13.8547 17.0262C13.9587 17.2774 14.135 17.4922 14.3611 17.6433C14.5872 17.7944 14.853 17.875 15.125 17.875C15.4897 17.875 15.8394 17.7301 16.0973 17.4723C16.3551 17.2144 16.5 16.8647 16.5 16.5Z" fill="currentColor"/>
</svg>
