<svg width="95" height="20" viewBox="0 0 95 20" fill="none" xmlns="http://www.w3.org/2000/svg">
<g clip-path="url(#clip0_25_274)">
<path d="M91.2197 0.0478516C91.2155 4.42223 91.2167 7.3526 91.2178 10.5928V10.6387H94.9346V13.7568H91.2188V14.1191C91.2204 17.0067 88.8804 19.3496 85.9922 19.3496H78.4287V16.2324H85.9922C87.1571 16.2324 88.1022 15.2867 88.1016 14.1211C88.1015 14.0145 88.1007 13.9068 88.1006 13.8018V13.7568H80.4004C77.5138 13.7567 75.1738 11.4159 75.1738 8.5293V0.0478516H78.292V8.5293C78.292 9.69399 79.2357 10.6386 80.4004 10.6387H88.0996V10.5928C88.0985 7.35222 88.0983 4.42085 88.1025 0.0458984L91.2197 0.0478516Z" fill="currentColor" stroke="currentColor" stroke-width="0.0916988"/>
<path d="M64.1895 0.0802841C67.0804 0.0803154 69.4195 2.42861 69.417 5.31564C69.4152 7.30375 69.416 8.16531 69.418 10.1721V10.6975H73.5576V13.8156H58.9141C56.0273 13.8156 53.6865 11.4748 53.6865 8.5881V3.19845H53.6807V0.0802841H64.1895ZM56.8047 8.5881C56.8047 9.75292 57.7492 10.6975 58.9141 10.6975H66.3008V10.6516C66.3006 10.4866 66.3 10.3291 66.2998 10.1779C66.2979 8.16902 66.297 7.3039 66.2988 5.31271C66.2997 4.14476 65.3534 3.19848 64.1895 3.19845H56.8047V8.5881Z" fill="currentColor" stroke="currentColor" stroke-width="0.0916988"/>
<path d="M49.9757 1.65219H46.4036C44.3762 1.65219 42.7336 3.29975 42.7352 5.32715C42.7376 8.23469 42.7349 8.72703 42.7314 13.8482" stroke="currentColor" stroke-width="3.20946"/>
<path d="M35.9461 0.00143433V8.52942C35.9461 10.5552 34.3039 12.1974 32.2782 12.1974H26.6846C24.6588 12.1974 23.0166 10.5552 23.0166 8.52942V0.00143433" stroke="currentColor" stroke-width="3.20946"/>
<path d="M10.5547 0.0475388C13.4446 0.0476206 15.7843 2.393 15.7822 5.28094C15.7809 7.15302 15.781 8.88391 15.7812 10.6188V10.6647H19.9229V13.7829H15.7822V13.8288C15.7831 15.472 15.7848 17.193 15.7861 19.1032V19.3034L12.668 19.3044V19.1149C12.6665 17.2003 12.665 15.4757 12.6641 13.8288V13.7829H5.27832C2.39183 13.7826 0.0517579 11.4419 0.0517578 8.55535V3.1657H0.0458984V0.0475388H10.5547ZM3.16992 8.55535C3.16992 9.71996 4.11371 10.6645 5.27832 10.6647H12.6631V10.6188C12.6628 8.8834 12.6637 7.15179 12.665 5.27898C12.6659 4.11183 11.7199 3.16578 10.5547 3.1657H3.16992V8.55535Z" fill="currentColor" stroke="currentColor" stroke-width="0.0916988"/>
</g>
<defs>
<clipPath id="clip0_25_274">
<rect width="95" height="19.4402" fill="white"/>
</clipPath>
</defs>
</svg>
