<svg width="20" height="20" viewBox="0 0 20 20" fill="none" xmlns="http://www.w3.org/2000/svg">
<path d="M10.5547 0.0458984C13.4446 0.0459803 15.7843 2.39136 15.7822 5.2793C15.7809 7.15138 15.781 8.88227 15.7812 10.6172V10.6631H19.9229V13.7812H15.7822V13.8271C15.7831 15.4704 15.7848 17.1914 15.7861 19.1016V19.3018L12.668 19.3027V19.1133C12.6665 17.1987 12.665 15.474 12.6641 13.8271V13.7812H5.27832C2.39183 13.781 0.0517579 11.4402 0.0517578 8.55371V3.16406H0.0458984V0.0458984H10.5547ZM3.16992 8.55371C3.16992 9.71832 4.11371 10.6628 5.27832 10.6631H12.6631V10.6172C12.6628 8.88176 12.6637 7.15015 12.665 5.27734C12.6659 4.11019 11.7199 3.16414 10.5547 3.16406H3.16992V8.55371Z" fill="currentColor" stroke="currentColor" stroke-width="0.0916988"/>
</svg>
