<svg width="6" height="10" viewBox="0 0 6 10" fill="none" xmlns="http://www.w3.org/2000/svg">
<path d="M5.4854 6.41546C5.52261 6.45262 5.55212 6.49676 5.57226 6.54534C5.5924 6.59391 5.60276 6.64599 5.60276 6.69857C5.60276 6.75116 5.5924 6.80323 5.57226 6.85181C5.55212 6.90039 5.52261 6.94452 5.4854 6.98168L3.08445 9.38264C3.04728 9.41984 3.00315 9.44936 2.95457 9.4695C2.90599 9.48963 2.85392 9.5 2.80134 9.5C2.74875 9.5 2.69668 9.48963 2.6481 9.4695C2.59952 9.44936 2.55539 9.41984 2.51822 9.38264L0.117269 6.98168C0.0421827 6.9066 -7.91144e-10 6.80476 0 6.69857C7.91144e-10 6.59238 0.0421827 6.49055 0.117269 6.41546C0.192355 6.34037 0.294194 6.29819 0.400381 6.29819C0.506569 6.29819 0.608408 6.34037 0.683494 6.41546L2.80134 8.5338L4.91918 6.41546C4.95634 6.37825 5.00047 6.34874 5.04905 6.3286C5.09763 6.30846 5.1497 6.2981 5.20229 6.2981C5.25488 6.2981 5.30695 6.30846 5.35553 6.3286C5.40411 6.34874 5.44824 6.37825 5.4854 6.41546ZM0.683494 3.08454L2.80134 0.966199L4.91918 3.08454C4.99426 3.15963 5.0961 3.20181 5.20229 3.20181C5.30848 3.20181 5.41032 3.15963 5.4854 3.08454C5.56049 3.00945 5.60267 2.90762 5.60267 2.80143C5.60267 2.69524 5.56049 2.5934 5.4854 2.51831L3.08445 0.117361C3.04728 0.0801559 3.00315 0.0506405 2.95457 0.0305028C2.90599 0.0103651 2.85392 0 2.80134 0C2.74875 0 2.69668 0.0103651 2.6481 0.0305028C2.59952 0.0506405 2.55539 0.0801559 2.51822 0.117361L0.117269 2.51831C0.0421827 2.5934 -2.09306e-09 2.69524 0 2.80143C2.09337e-09 2.90762 0.0421831 3.00945 0.117269 3.08454C0.192355 3.15963 0.294194 3.20181 0.400381 3.20181C0.506569 3.20181 0.608408 3.15963 0.683494 3.08454Z" fill="currentColor"/>
</svg>
