<svg width="14" height="14" viewBox="0 0 14 14" fill="none" xmlns="http://www.w3.org/2000/svg">
<path fill-rule="evenodd" clip-rule="evenodd" d="M6.99671 12.1304C9.83181 12.1304 12.13 9.83217 12.13 6.99708C12.13 4.16201 9.83181 1.86375 6.99671 1.86375C4.16165 1.86375 1.86338 4.16201 1.86338 6.99708C1.86338 9.83217 4.16165 12.1304 6.99671 12.1304ZM6.99671 13.5304C10.605 13.5304 13.53 10.6053 13.53 6.99708C13.53 3.38882 10.605 0.463745 6.99671 0.463745C3.38846 0.463745 0.463379 3.38882 0.463379 6.99708C0.463379 10.6053 3.38846 13.5304 6.99671 13.5304Z" fill="currentColor"/>
<path d="M10.33 6.99708C10.33 8.83803 8.83769 10.3304 6.99674 10.3304L6.99651 3.66375C8.83746 3.66375 10.33 5.15613 10.33 6.99708Z" fill="currentColor"/>
</svg>
